<svg xmlns="http://www.w3.org/2000/svg" width="98" height="137" fill="none" viewBox="0 0 98 137">
  <g clip-path="url(#a)">
    <path fill="#EB0036" d="M0 104.216h98V137H20.09C9.003 137 0 127.987 0 116.886v-12.67ZM12.18.15c3.707 0 6.564 1.047 8.566 3.136 2.005 2.091 3.007 5.01 3.007 8.754v13.543H17.74V11.187c0-1.673-.517-3.01-1.553-4.014-1.035-1.004-2.372-1.505-4.009-1.505-1.637 0-2.973.501-4.009 1.505-1.035 1.003-1.553 2.341-1.553 4.014v14.396H.606V12.04c0-3.746 1.002-6.663 3.006-8.754C5.617 1.195 8.472.15 12.18.15Zm26.854 25.835c-2.305 0-4.292-.368-5.962-1.104-1.67-.735-3.048-1.713-4.134-2.934a11.81 11.81 0 0 1-2.405-4.164 15.065 15.065 0 0 1-.776-4.79c0-1.64.258-3.236.776-4.791a11.827 11.827 0 0 1 2.405-4.165c1.084-1.22 2.463-2.198 4.134-2.934C34.742.368 36.729 0 39.034 0c2.306 0 4.293.368 5.963 1.103 1.67.736 3.048 1.714 4.134 2.934a11.842 11.842 0 0 1 2.405 4.165c.518 1.555.777 3.153.777 4.79s-.26 3.236-.777 4.79a11.842 11.842 0 0 1-2.405 4.165c-1.086 1.22-2.464 2.199-4.134 2.934-1.67.736-3.657 1.104-5.963 1.104Zm0-20.467c-1.604 0-2.948.368-4.034 1.103-1.086.736-1.903 1.655-2.456 2.76-.55 1.104-.818 2.309-.8 3.611.015 1.305.29 2.508.826 3.613.533 1.103 1.344 2.025 2.43 2.76 1.084.736 2.43 1.103 4.034 1.103 1.604 0 2.948-.367 4.033-1.103 1.084-.735 1.895-1.655 2.43-2.76.533-1.103.801-2.308.801-3.613 0-1.304-.268-2.507-.8-3.61-.536-1.104-1.345-2.023-2.431-2.76-1.087-.736-2.43-1.104-4.033-1.104Z"/>
    <path fill="#0A1E3F" d="M0 68.41V30.787h13.328c2.637 0 4.835.628 6.588 1.881 1.754 1.254 3.073 2.827 3.958 4.717.885 1.89 1.319 3.93 1.303 6.12-.018 2.19-.485 4.231-1.403 6.12-.918 1.89-2.297 3.46-4.134 4.717-1.836 1.254-4.142 1.882-6.914 1.882a14.4 14.4 0 0 1-3.507-.452 9.869 9.869 0 0 1-3.256-1.456v14.096H0v-.002Zm12.675-17.707c1.436 0 2.63-.36 3.583-1.077a6.914 6.914 0 0 0 2.155-2.659c.485-1.054.735-2.206.753-3.462.015-1.254-.194-2.408-.628-3.462a6.728 6.728 0 0 0-1.953-2.658c-.87-.718-1.954-1.078-3.257-1.078H6.01v8.679c0 1.103.217 2.015.651 2.734.434.72.977 1.305 1.627 1.757a6.22 6.22 0 0 0 2.155.953 9.774 9.774 0 0 0 2.23.275l.001-.002Zm15.032 5.313v-18.26c0-2.007.617-3.644 1.854-4.915 1.235-1.272 3.056-1.907 5.46-1.907h7.516v5.518h-6.613c-.8 0-1.37.184-1.703.551-.335.368-.5.853-.5 1.456v17.557h-6.015Z"/>
    <path fill="#0A1E3F" d="M12.777 98.976c-1.704 0-3.323-.268-4.86-.802a11.953 11.953 0 0 1-4.058-2.357c-1.17-1.037-2.105-2.299-2.806-3.787C.352 90.54 0 88.828 0 86.887V61.002h6.013v12.54h6.614c3.073 0 5.577.629 7.515 1.883 1.936 1.254 3.357 2.826 4.26 4.716.902 1.89 1.31 3.93 1.226 6.12-.084 2.191-.627 4.231-1.627 6.12-1.002 1.89-2.448 3.461-4.333 4.717-1.888 1.254-4.183 1.882-6.889 1.882l-.002-.004ZM6.062 87.237c0 .838.184 1.64.551 2.408.367.77.86 1.43 1.477 1.982a7.519 7.519 0 0 0 2.13 1.33c.8.335 1.635.5 2.504.5 1.47 0 2.706-.36 3.708-1.077a7.321 7.321 0 0 0 2.306-2.658c.533-1.055.826-2.207.877-3.463.05-1.254-.143-2.408-.576-3.462-.434-1.054-1.12-1.938-2.054-2.658-.936-.718-2.137-1.078-3.608-1.078H6.062v8.176Zm55.764 2.608a13.524 13.524 0 0 1-1.528 3.536 11.146 11.146 0 0 1-2.606 2.934c-1.051.838-2.298 1.497-3.734 1.982-1.435.485-3.073.728-4.91.728-2.305 0-4.291-.368-5.962-1.104-1.67-.735-3.047-1.713-4.134-2.934a11.81 11.81 0 0 1-2.405-4.164 15.068 15.068 0 0 1-.777-4.79c0-1.64.258-3.236.777-4.791a11.827 11.827 0 0 1 2.405-4.165c1.085-1.22 2.464-2.198 4.134-2.934 1.67-.735 3.657-1.103 5.963-1.103 2.17 0 4.058.368 5.662 1.103 1.604.736 2.93 1.714 3.983 2.934a12.246 12.246 0 0 1 2.354 4.165c.518 1.555.778 3.153.778 4.79 0 .302-.018.61-.05.928l-.1.927H41.884c.367 1.504 1.135 2.818 2.305 3.937 1.168 1.121 2.788 1.68 4.86 1.68 1.605 0 2.94-.342 4.01-1.028 1.068-.685 1.887-1.563 2.456-2.633h6.312l-.002.002Zm-6.514-6.972a6.971 6.971 0 0 0-2.28-3.085c-1.053-.82-2.38-1.228-3.983-1.228-1.77 0-3.216.419-4.333 1.254-1.12.837-1.929 1.856-2.43 3.06h13.026ZM73.95 73.19c2.974 0 5.31.905 7.014 2.71 1.737-1.805 4.075-2.71 7.014-2.71 3.239 0 5.72 1.047 7.44 3.136 1.718 2.092 2.58 5.01 2.58 8.754v13.544h-6.011v-15.1c0-1.672-.418-2.892-1.253-3.66-.836-.77-1.754-1.155-2.756-1.155-1.003 0-1.972.385-2.806 1.154-.836.77-1.252 1.99-1.252 3.662v15.099h-5.963v-15.1c0-1.672-.418-2.892-1.252-3.66-.836-.77-1.754-1.155-2.757-1.155-1.002 0-1.97.385-2.805 1.154-.834.77-1.252 1.99-1.252 3.662v15.099h-6.012V85.08c0-3.746.868-6.662 2.604-8.754 1.737-2.089 4.226-3.135 7.465-3.135h.002Zm11.043-34.702a11.859 11.859 0 0 0-2.405-4.164c-1.087-1.221-2.464-2.2-4.134-2.935-1.599-.704-3.49-1.068-5.67-1.097v-.006H56.401v.006c-2.171.033-4.056.395-5.649 1.097-1.67.736-3.047 1.714-4.134 2.935a11.81 11.81 0 0 0-2.404 4.164 15.074 15.074 0 0 0-.776 4.79c0 1.638.258 3.236.776 4.79a11.81 11.81 0 0 0 2.404 4.165c1.085 1.221 2.464 2.199 4.134 2.934 1.593.703 3.478 1.065 5.648 1.098v.006h16.382v-.006c2.178-.032 4.072-.393 5.67-1.098 1.67-.735 3.047-1.713 4.133-2.934a11.841 11.841 0 0 0 2.406-4.164c.517-1.555.777-3.151.777-4.79 0-1.64-.26-3.236-.778-4.791h.003Zm-6.037 8.403c-.536 1.104-1.344 2.025-2.43 2.76-1.083.734-2.423 1.102-4.021 1.104H56.703c-1.598-.002-2.938-.37-4.02-1.104-1.087-.735-1.895-1.655-2.43-2.76-.536-1.103-.812-2.308-.827-3.613-.018-1.304.25-2.507.8-3.61.552-1.104 1.37-2.023 2.457-2.76 1.082-.734 2.422-1.102 4.02-1.104h15.8c1.598 0 2.938.37 4.02 1.103 1.085.736 1.895 1.655 2.43 2.76.534 1.104.802 2.309.802 3.611 0 1.303-.268 2.508-.801 3.613h.002Z"/>
    <path fill="#EB0036" d="M75.906 39.339a5.84 5.84 0 0 0-4.128-1.704 5.864 5.864 0 0 0-5.861 5.868 5.85 5.85 0 0 0 1.733 4.166 5.84 5.84 0 0 0 4.128 1.704 5.864 5.864 0 0 0 5.86-5.868 5.85 5.85 0 0 0-1.732-4.166Z"/>
    <path fill="#0A1E3F" d="M33.718 61h-6.011l.006 38.025h6.01L33.717 61Z"/>
    <path fill="#fff" d="M47.302 114.01h3.183v13.278h-3.183V114.01Zm11.3 13.489c-1.219 0-2.272-.195-3.155-.585-.885-.389-1.614-.907-2.188-1.553a6.275 6.275 0 0 1-1.274-2.204 8 8 0 0 1-.41-2.537c0-.869.137-1.714.41-2.535a6.237 6.237 0 0 1 1.274-2.205c.574-.645 1.303-1.164 2.188-1.553.883-.389 1.936-.585 3.155-.585 1.22 0 2.272.196 3.157.585.883.389 1.614.908 2.188 1.553a6.278 6.278 0 0 1 1.274 2.205c.274.823.41 1.668.41 2.535v6.347c0 1.01-.146 1.943-.437 2.801a5.786 5.786 0 0 1-1.327 2.205c-.591.61-1.326 1.089-2.201 1.434-.876.346-1.897.518-3.064.518h-2.758v-2.92h3.13c.584 0 1.092-.102 1.525-.306a3.157 3.157 0 0 0 1.088-.823c.292-.344.508-.739.651-1.182a4.44 4.44 0 0 0 .213-1.353v-.771a6.593 6.593 0 0 1-1.711.691c-.628.158-1.34.238-2.136.238h-.002Zm0-10.834c-.867 0-1.586.195-2.16.584a3.8 3.8 0 0 0-1.3 1.462 4.224 4.224 0 0 0-.437 1.911c0 .69.146 1.328.437 1.911a3.79 3.79 0 0 0 1.3 1.461c.574.389 1.295.585 2.16.585.866 0 1.587-.194 2.161-.585a3.79 3.79 0 0 0 1.3-1.461 4.227 4.227 0 0 0 .437-1.911 4.22 4.22 0 0 0-.438-1.911 3.813 3.813 0 0 0-1.299-1.462c-.574-.389-1.295-.584-2.16-.584Zm8.116-2.655H69.9v13.278h-3.182V114.01Zm10.237 13.462c-.903 0-1.72-.143-2.454-.425a5.065 5.065 0 0 1-1.883-1.248c-.522-.547-.924-1.216-1.207-2.005-.284-.788-.424-1.696-.424-2.723v-12.374h3.182v5.311h2.784v2.92h-2.758v4.329c0 .904.23 1.679.69 2.324.458.646 1.148.97 2.068.97v2.921h.002Zm13.871-7.408v7.249h-3.182v-.743a4.995 4.995 0 0 1-1.684.704c-.61.133-1.216.2-1.817.2-1.15 0-2.157-.196-3.025-.585-.867-.389-1.582-.904-2.149-1.54a6.414 6.414 0 0 1-1.273-2.177 7.616 7.616 0 0 1-.424-2.523c0-1.115.207-2.103.623-2.962.416-.858.955-1.57 1.617-2.138a6.932 6.932 0 0 1 2.269-1.287 7.88 7.88 0 0 1 2.573-.438c.867 0 1.63.12 2.4.358.77.239 1.46.61 2.07 1.115.61.505 1.096 1.15 1.459 1.939.361.788.543 1.731.543 2.828Zm-10.37.558c0 .477.084.952.252 1.42.168.469.42.89.756 1.261a3.81 3.81 0 0 0 1.26.904c.504.231 1.092.346 1.764.346.547 0 1.026-.109 1.433-.332a3.155 3.155 0 0 0 1.021-.877c.274-.361.48-.778.623-1.248.141-.469.213-.942.213-1.42.018-.655-.07-1.222-.265-1.699a3.495 3.495 0 0 0-.782-1.196 3.41 3.41 0 0 0-1.127-.729 3.575 3.575 0 0 0-1.327-.253c-.459 0-.941.081-1.393.239a3.671 3.671 0 0 0-1.219.718 3.527 3.527 0 0 0-.875 1.195c-.22.477-.332 1.035-.332 1.673l-.002-.002Zm11.456-13.251h3.183v19.942h-3.183v-19.942Zm-48.879-.01v6.647h-3.34c-1.167 0-2.188.172-3.064.518-.875.347-1.604.82-2.188 1.421a6.027 6.027 0 0 0-1.326 2.11 7.344 7.344 0 0 0-.452 2.59c0 .869.141 1.708.424 2.523.284.814.708 1.54 1.274 2.177.565.638 1.282 1.151 2.15 1.54.865.389 1.873.585 3.023.585.602 0 1.208-.067 1.817-.2a4.975 4.975 0 0 0 1.684-.704v.743h3.183v-19.934l-3.185-.016Zm0 13.871c0 .354-.048.726-.146 1.115a2.97 2.97 0 0 1-.518 1.076c-.248.328-.57.596-.969.81-.398.213-.906.318-1.526.318-.885 0-1.621-.189-2.215-.571-.592-.381-1.04-.849-1.34-1.408a4.028 4.028 0 0 1-.477-1.833 4.185 4.185 0 0 1 .346-1.833 3.448 3.448 0 0 1 1.166-1.408c.53-.382 1.184-.571 1.964-.571h3.714v4.301l.002.004Z"/>
  </g>
  <defs>
    <clipPath id="a">
      <path fill="#fff" d="M0 0h98v137H0z"/>
    </clipPath>
  </defs>
</svg>
