<svg xmlns="http://www.w3.org/2000/svg" width="30" height="30" fill="none" viewBox="0 0 30 30">
  <g clip-path="url(#a)">
    <path fill="#EB0036" d="M14.996 9.998A5.013 5.013 0 0 0 9.994 15a5.013 5.013 0 0 0 5.002 5.002A5.013 5.013 0 0 0 19.998 15a5.013 5.013 0 0 0-5.002-5.002ZM30 15c0-2.071.019-4.124-.098-6.192-.116-2.401-.664-4.533-2.42-6.289C25.72.76 23.593.215 21.19.1 19.122-.018 17.069 0 15 0c-2.071 0-4.124-.019-6.192.098-2.401.116-4.533.664-6.289 2.42C.76 4.28.215 6.407.1 8.81-.018 10.878 0 12.931 0 15c0 2.068-.019 4.124.098 6.192.116 2.401.664 4.533 2.42 6.289 1.76 1.76 3.888 2.304 6.29 2.42 2.07.117 4.123.098 6.191.098 2.071 0 4.124.019 6.192-.098 2.401-.116 4.533-.664 6.289-2.42 1.76-1.76 2.304-3.888 2.42-6.29.12-2.067.098-4.12.098-6.191Zm-15.003 7.696A7.686 7.686 0 0 1 7.3 15a7.686 7.686 0 0 1 7.696-7.696A7.686 7.686 0 0 1 22.693 15a7.686 7.686 0 0 1-7.697 7.696Zm8.012-13.91a1.795 1.795 0 0 1-1.798-1.798c0-.994.803-1.797 1.798-1.797a1.795 1.795 0 0 1 1.661 2.486 1.798 1.798 0 0 1-1.661 1.109Z"/>
  </g>
  <defs>
    <clipPath id="a">
      <path fill="#fff" d="M0 0h30v30H0z"/>
    </clipPath>
  </defs>
</svg>
