<svg xmlns="http://www.w3.org/2000/svg" width="30" height="30" fill="none" viewBox="0 0 30 30">
  <g clip-path="url(#a)">
    <path fill="#EB0036" fill-rule="evenodd" d="M0 2.506A2.506 2.506 0 0 1 2.506 0h24.985A2.505 2.505 0 0 1 30 2.506v24.985A2.507 2.507 0 0 1 27.492 30H2.506A2.507 2.507 0 0 1 0 27.492V2.506Zm11.874 8.932h4.063v2.04c.586-1.172 2.086-2.228 4.34-2.228 4.322 0 5.346 2.336 5.346 6.622v7.939H21.25v-6.963c0-2.44-.587-3.818-2.076-3.818-2.066 0-2.925 1.485-2.925 3.818v6.963h-4.374V11.438Zm-7.5 14.186H8.75V11.25H4.375v14.374ZM9.376 6.562a2.813 2.813 0 1 1-5.625.124 2.813 2.813 0 0 1 5.625-.124Z" clip-rule="evenodd"/>
  </g>
  <defs>
    <clipPath id="a">
      <path fill="#fff" d="M0 0h30v30H0z"/>
    </clipPath>
  </defs>
</svg>
