<?xml version="1.0" encoding="UTF-8"?>
<svg id="Layer_1" data-name="Layer 1" xmlns="http://www.w3.org/2000/svg" viewBox="0 0 200 200">
  <defs>
    <style>
      .cls-1 {
        fill: #fff;
      }

      .cls-2 {
        fill: #e81038;
      }

      .cls-3 {
        fill: #0a1e3f;
      }
    </style>
  </defs>
  <rect class="cls-3" width="200" height="200" rx="62.72" ry="62.72"/>
  <g>
    <path class="cls-2" d="M69.74,67.16c9.1,0,16.1,2.56,21.02,7.68,4.92,5.12,7.37,12.27,7.37,21.45v33.18h-14.75v-35.27c0-4.1-1.27-7.37-3.81-9.83-2.54-2.46-5.82-3.69-9.83-3.69s-7.29,1.23-9.83,3.69c-2.54,2.46-3.81,5.74-3.81,9.83v35.27h-14.75v-33.18c0-9.18,2.46-16.33,7.37-21.45,4.92-5.12,11.92-7.68,21.02-7.68Z"/>
    <path class="cls-1" d="M102.34,159.34v-92.18h32.69c6.47,0,11.86,1.54,16.16,4.61,4.3,3.07,7.54,6.93,9.71,11.55,2.17,4.63,3.24,9.63,3.2,14.99-.04,5.37-1.19,10.37-3.44,14.99-2.25,4.63-5.63,8.48-10.14,11.55-4.51,3.07-10.16,4.61-16.96,4.61-2.79,0-5.65-.37-8.6-1.11-2.95-.74-5.61-1.92-7.99-3.56v34.54h-14.63ZM133.44,115.96c3.52,0,6.45-.88,8.79-2.64,2.33-1.76,4.1-3.93,5.28-6.51,1.19-2.58,1.8-5.41,1.84-8.48.04-3.07-.47-5.9-1.54-8.48-1.07-2.58-2.66-4.75-4.79-6.51-2.13-1.76-4.79-2.64-7.99-2.64h-17.94v21.26c0,2.7.53,4.94,1.6,6.7,1.06,1.76,2.4,3.2,3.99,4.3,1.6,1.11,3.36,1.89,5.28,2.34,1.92.45,3.75.68,5.47.68Z"/>
  </g>
</svg>