<svg xmlns="http://www.w3.org/2000/svg" width="30" height="30" fill="none" viewBox="0 0 30 30">
  <path fill="#EB0036" d="M30 5.67a12.305 12.305 0 0 1-3.534.968 6.17 6.17 0 0 0 2.706-3.406 12.287 12.287 0 0 1-3.909 1.493 6.157 6.157 0 0 0-10.488 5.615A17.479 17.479 0 0 1 2.09 3.91a6.152 6.152 0 0 0-.833 3.094 6.157 6.157 0 0 0 2.738 5.124 6.14 6.14 0 0 1-2.788-.77v.079a6.157 6.157 0 0 0 4.938 6.035 6.2 6.2 0 0 1-2.78.106 6.158 6.158 0 0 0 5.75 4.273 12.352 12.352 0 0 1-7.645 2.635c-.49 0-.981-.028-1.469-.085a17.407 17.407 0 0 0 9.434 2.765c11.323 0 17.513-9.378 17.513-17.512 0-.264-.007-.53-.019-.795a12.511 12.511 0 0 0 3.07-3.184L30 5.67Z"/>
</svg>
