<svg xmlns="http://www.w3.org/2000/svg" width="33" height="33" fill="none" viewBox="0 0 33 33">
  <rect width="33" height="33" fill="#E0E0E0" rx="5"/>
  <path fill="#FE113D" d="M15.864 24.74c-.864 0-1.76-.112-2.688-.336-.928-.224-1.736-.56-2.424-1.008-.32-.208-.536-.448-.648-.72a1.316 1.316 0 0 1-.096-.768c.064-.256.184-.472.36-.648.192-.176.424-.28.696-.312.288-.032.6.04.936.216a8.736 8.736 0 0 0 1.896.768 8.095 8.095 0 0 0 1.872.216c.704 0 1.296-.096 1.776-.288.48-.192.84-.48 1.08-.864.256-.384.384-.848.384-1.392 0-.8-.272-1.392-.816-1.776-.528-.4-1.304-.6-2.328-.6h-1.536c-.448 0-.792-.112-1.032-.336-.224-.224-.336-.536-.336-.936s.112-.712.336-.936c.24-.224.584-.336 1.032-.336h1.248c.608 0 1.128-.096 1.56-.288a2.429 2.429 0 0 0 1.008-.864c.24-.368.36-.816.36-1.344 0-.736-.248-1.296-.744-1.68-.48-.384-1.184-.576-2.112-.576a6.36 6.36 0 0 0-1.68.216c-.512.128-1.08.376-1.704.744-.288.176-.568.248-.84.216a1.08 1.08 0 0 1-.648-.312 1.365 1.365 0 0 1-.36-.624 1.266 1.266 0 0 1 .048-.768c.096-.272.296-.504.6-.696a7.922 7.922 0 0 1 2.28-1.008 9.219 9.219 0 0 1 2.568-.36c1.168 0 2.168.184 3 .552.832.352 1.464.864 1.896 1.536.448.656.672 1.456.672 2.4 0 .672-.128 1.288-.384 1.848a3.992 3.992 0 0 1-1.08 1.392c-.464.384-1.024.656-1.68.816v-.288c1.152.192 2.048.672 2.688 1.44.64.752.96 1.696.96 2.832 0 .992-.248 1.856-.744 2.592s-1.2 1.304-2.112 1.704c-.912.384-2 .576-3.264.576Z"/>
</svg>
