<svg xmlns="http://www.w3.org/2000/svg" width="33" height="33" fill="none" viewBox="0 0 33 33">
  <rect width="33" height="33" fill="#E0E0E0" rx="5"/>
  <path fill="#FE113D" d="M18.912 24.692c-.48 0-.856-.128-1.128-.384-.272-.272-.408-.656-.408-1.152v-1.872h-5.928c-.496 0-.896-.104-1.2-.312-.288-.208-.432-.536-.432-.984 0-.256.064-.536.192-.84.144-.304.392-.704.744-1.2l6.576-9.528c.224-.336.472-.592.744-.768.272-.176.584-.264.936-.264.416 0 .76.128 1.032.384.272.24.408.624.408 1.152v9.816h1.176c.464 0 .808.112 1.032.336.24.208.36.52.36.936 0 .416-.12.736-.36.96-.224.208-.568.312-1.032.312h-1.176v1.872c0 .496-.136.88-.408 1.152-.272.256-.648.384-1.128.384Zm-1.536-5.952v-7.488h.696l-5.664 8.304v-.816h4.968Z"/>
</svg>
