<svg xmlns="http://www.w3.org/2000/svg" width="33" height="33" fill="none" viewBox="0 0 33 33">
  <rect width="33" height="33" fill="#E0E0E0" rx="5"/>
  <path fill="#FE113D" d="M12.192 24.5c-.512 0-.888-.112-1.128-.336-.224-.24-.336-.584-.336-1.032 0-.272.072-.536.216-.792.144-.256.352-.528.624-.816l4.824-5.136c.736-.768 1.264-1.464 1.584-2.088.32-.64.48-1.28.48-1.92 0-.8-.256-1.408-.768-1.824-.496-.416-1.224-.624-2.184-.624-.544 0-1.088.08-1.632.24-.544.144-1.096.4-1.656.768-.288.192-.56.272-.816.24a1.173 1.173 0 0 1-.648-.312 1.365 1.365 0 0 1-.36-.648 1.394 1.394 0 0 1 .024-.768c.096-.272.288-.504.576-.696A7.97 7.97 0 0 1 13.296 7.7a9.646 9.646 0 0 1 2.592-.36c1.216 0 2.24.184 3.072.552.832.368 1.464.904 1.896 1.608.432.704.648 1.56.648 2.568 0 .672-.112 1.328-.336 1.968-.208.64-.536 1.288-.984 1.944-.432.656-1 1.352-1.704 2.088l-4.512 4.704v-.816h7.056c.432 0 .76.104.984.312.224.208.336.52.336.936 0 .416-.112.736-.336.96-.224.224-.552.336-.984.336h-8.832Z"/>
</svg>
