<svg xmlns="http://www.w3.org/2000/svg" width="33" height="33" fill="none" viewBox="0 0 33 33">
  <rect width="33" height="33" fill="#E0E0E0" rx="5"/>
  <path fill="#FE113D" d="M16.344 24.74c-.848 0-1.712-.112-2.592-.336a8.396 8.396 0 0 1-2.424-1.032c-.304-.192-.512-.416-.624-.672a1.51 1.51 0 0 1-.072-.792 1.37 1.37 0 0 1 .36-.672c.192-.192.416-.304.672-.336.272-.032.568.04.888.216a8.346 8.346 0 0 0 1.8.768 6.96 6.96 0 0 0 1.944.264c.672 0 1.248-.12 1.728-.36s.848-.576 1.104-1.008c.256-.432.384-.936.384-1.512 0-.896-.272-1.616-.816-2.16-.544-.56-1.288-.84-2.232-.84a4.29 4.29 0 0 0-1.488.264c-.48.16-.952.448-1.416.864a3.29 3.29 0 0 1-.552.384 1.588 1.588 0 0 1-.72.168c-.4 0-.704-.104-.912-.312-.208-.208-.312-.496-.312-.864V8.924c0-.432.112-.76.336-.984.24-.24.576-.36 1.008-.36h7.896c.432 0 .76.112.984.336.24.208.36.52.36.936 0 .4-.12.712-.36.936-.224.224-.552.336-.984.336h-6.24V15.5h-.792c.416-.56.968-.992 1.656-1.296a5.52 5.52 0 0 1 2.256-.456c1.072 0 2 .232 2.784.696.8.448 1.416 1.08 1.848 1.896.448.8.672 1.736.672 2.808 0 1.104-.248 2.08-.744 2.928-.496.832-1.208 1.488-2.136 1.968-.912.464-2 .696-3.264.696Z"/>
</svg>
