<svg xmlns="http://www.w3.org/2000/svg" width="33" height="33" fill="none" viewBox="0 0 33 33">
  <rect width="33" height="33" fill="#E0E0E0" rx="5"/>
  <path fill="#FE113D" d="M12.744 24.5c-.416 0-.744-.112-.984-.336-.224-.24-.336-.56-.336-.96 0-.416.112-.728.336-.936.24-.208.568-.312.984-.312h2.688V10.172h1.488l-3.528 2.136c-.304.176-.592.248-.864.216a1.342 1.342 0 0 1-.672-.336 1.527 1.527 0 0 1-.36-.672 1.266 1.266 0 0 1 .048-.768c.112-.272.32-.496.624-.672l3.312-1.992c.32-.192.64-.352.96-.48.32-.144.616-.216.888-.216.336 0 .616.096.84.288.224.176.336.472.336.888v13.392h2.448c.416 0 .736.104.96.312.24.208.36.52.36.936 0 .416-.12.736-.36.96-.224.224-.544.336-.96.336h-8.208Z"/>
</svg>
