<svg xmlns="http://www.w3.org/2000/svg" width="33" height="33" fill="none" viewBox="0 0 33 33">
  <rect width="33" height="33" fill="#E0E0E0" rx="5"/>
  <path fill="#FE113D" d="M16.824 24.74c-1.392 0-2.584-.328-3.576-.984-.976-.672-1.72-1.632-2.232-2.88-.512-1.248-.768-2.76-.768-4.536 0-1.44.16-2.712.48-3.816.336-1.12.816-2.064 1.44-2.832a6.11 6.11 0 0 1 2.28-1.752c.912-.4 1.936-.6 3.072-.6.704 0 1.416.112 2.136.336a7.136 7.136 0 0 1 2.064.96c.256.16.424.368.504.624.08.256.088.512.024.768-.048.24-.16.456-.336.648-.16.176-.368.288-.624.336-.256.032-.536-.04-.84-.216-.544-.32-1.056-.544-1.536-.672a5.568 5.568 0 0 0-1.44-.192c-.928 0-1.712.216-2.352.648-.64.432-1.128 1.08-1.464 1.944-.32.864-.48 1.944-.48 3.24v1.8h-.288c.128-.816.392-1.512.792-2.088a4.014 4.014 0 0 1 1.584-1.344c.64-.32 1.352-.48 2.136-.48.976 0 1.84.232 2.592.696a4.9 4.9 0 0 1 1.776 1.92c.432.816.648 1.752.648 2.808 0 1.088-.24 2.064-.72 2.928a5.179 5.179 0 0 1-1.968 2.016c-.832.48-1.8.72-2.904.72Zm-.168-2.448c.576 0 1.08-.128 1.512-.384a2.584 2.584 0 0 0 1.032-1.08c.24-.48.36-1.024.36-1.632 0-.624-.12-1.168-.36-1.632a2.584 2.584 0 0 0-1.032-1.08c-.432-.272-.936-.408-1.512-.408s-1.08.136-1.512.408a2.795 2.795 0 0 0-1.032 1.08c-.24.464-.36 1.008-.36 1.632 0 .608.12 1.152.36 1.632.256.464.6.824 1.032 1.08.432.256.936.384 1.512.384Z"/>
</svg>
